<mxfile host="app.diagrams.net" modified="2024-04-25T13:32:44.470Z" agent="Mozilla/5.0 (Macintosh; Intel Mac OS X 10_15_7) AppleWebKit/605.1.15 (KHTML, like Gecko) Version/17.3 Safari/605.1.15" etag="sUwTVNmF2JD48RvATfy0" version="24.2.8" type="device">
  <diagram name="Страница — 1" id="xEmgllcR3weaRd5ca7ey">
    <mxGraphModel dx="1314" dy="809" grid="1" gridSize="10" guides="1" tooltips="1" connect="1" arrows="1" fold="1" page="1" pageScale="1" pageWidth="827" pageHeight="1169" math="0" shadow="0">
      <root>
        <mxCell id="0" />
        <mxCell id="1" parent="0" />
        <mxCell id="bxHcni_rUdnKQo_Xm9FA-107" value="Начало" style="rounded=1;whiteSpace=wrap;html=1;arcSize=50;" vertex="1" parent="1">
          <mxGeometry x="330" y="30" width="120" height="40" as="geometry" />
        </mxCell>
        <mxCell id="bxHcni_rUdnKQo_Xm9FA-108" value="" style="endArrow=classic;html=1;rounded=0;" edge="1" parent="1">
          <mxGeometry width="50" height="50" relative="1" as="geometry">
            <mxPoint x="390" y="70" as="sourcePoint" />
            <mxPoint x="390" y="130" as="targetPoint" />
          </mxGeometry>
        </mxCell>
        <mxCell id="bxHcni_rUdnKQo_Xm9FA-109" value="Ввод x1, x2, x3, x4, x5" style="shape=parallelogram;perimeter=parallelogramPerimeter;whiteSpace=wrap;html=1;fixedSize=1;" vertex="1" parent="1">
          <mxGeometry x="292.5" y="130" width="195" height="40" as="geometry" />
        </mxCell>
        <mxCell id="bxHcni_rUdnKQo_Xm9FA-110" value="" style="endArrow=classic;html=1;rounded=0;exitX=1;exitY=0.5;exitDx=0;exitDy=0;entryX=0;entryY=0.5;entryDx=0;entryDy=0;" edge="1" source="bxHcni_rUdnKQo_Xm9FA-117" target="bxHcni_rUdnKQo_Xm9FA-118" parent="1">
          <mxGeometry width="50" height="50" relative="1" as="geometry">
            <mxPoint x="449.99645340751044" y="385.66063977746876" as="sourcePoint" />
            <mxPoint x="416.25" y="325" as="targetPoint" />
          </mxGeometry>
        </mxCell>
        <mxCell id="bxHcni_rUdnKQo_Xm9FA-111" value="" style="endArrow=classic;html=1;rounded=0;exitX=0.5;exitY=1;exitDx=0;exitDy=0;" edge="1" source="bxHcni_rUdnKQo_Xm9FA-130" target="bxHcni_rUdnKQo_Xm9FA-132" parent="1">
          <mxGeometry width="50" height="50" relative="1" as="geometry">
            <mxPoint x="515.63" y="695" as="sourcePoint" />
            <mxPoint x="756.8800000000001" y="640" as="targetPoint" />
          </mxGeometry>
        </mxCell>
        <mxCell id="bxHcni_rUdnKQo_Xm9FA-112" value="Вывод y" style="shape=parallelogram;perimeter=parallelogramPerimeter;whiteSpace=wrap;html=1;fixedSize=1;" vertex="1" parent="1">
          <mxGeometry x="330" y="780" width="120" height="40" as="geometry" />
        </mxCell>
        <mxCell id="bxHcni_rUdnKQo_Xm9FA-113" value="Конец" style="rounded=1;whiteSpace=wrap;html=1;arcSize=50;" vertex="1" parent="1">
          <mxGeometry x="330" y="850" width="120" height="40" as="geometry" />
        </mxCell>
        <mxCell id="bxHcni_rUdnKQo_Xm9FA-114" value="" style="endArrow=classic;html=1;rounded=0;exitX=0.5;exitY=1;exitDx=0;exitDy=0;entryX=0.5;entryY=0;entryDx=0;entryDy=0;" edge="1" source="bxHcni_rUdnKQo_Xm9FA-112" target="bxHcni_rUdnKQo_Xm9FA-113" parent="1">
          <mxGeometry width="50" height="50" relative="1" as="geometry">
            <mxPoint x="150" y="715" as="sourcePoint" />
            <mxPoint x="200" y="665" as="targetPoint" />
          </mxGeometry>
        </mxCell>
        <mxCell id="bxHcni_rUdnKQo_Xm9FA-115" value="a = x1&lt;div&gt;b = x5&lt;/div&gt;&lt;div&gt;mx = x2 + 1&lt;/div&gt;" style="rounded=0;whiteSpace=wrap;html=1;" vertex="1" parent="1">
          <mxGeometry x="320" y="200" width="140" height="60" as="geometry" />
        </mxCell>
        <mxCell id="bxHcni_rUdnKQo_Xm9FA-116" value="" style="endArrow=classic;html=1;rounded=0;exitX=0.5;exitY=1;exitDx=0;exitDy=0;entryX=0.5;entryY=0;entryDx=0;entryDy=0;" edge="1" source="bxHcni_rUdnKQo_Xm9FA-109" target="bxHcni_rUdnKQo_Xm9FA-115" parent="1">
          <mxGeometry width="50" height="50" relative="1" as="geometry">
            <mxPoint x="356.25" y="280" as="sourcePoint" />
            <mxPoint x="406.25" y="230" as="targetPoint" />
          </mxGeometry>
        </mxCell>
        <mxCell id="bxHcni_rUdnKQo_Xm9FA-117" value="a &amp;lt; x2 + x3" style="rhombus;whiteSpace=wrap;html=1;" vertex="1" parent="1">
          <mxGeometry x="340" y="300" width="100" height="50" as="geometry" />
        </mxCell>
        <mxCell id="bxHcni_rUdnKQo_Xm9FA-118" value="a = x2 + x3" style="rounded=0;whiteSpace=wrap;html=1;" vertex="1" parent="1">
          <mxGeometry x="476.25" y="310" width="90" height="30" as="geometry" />
        </mxCell>
        <mxCell id="bxHcni_rUdnKQo_Xm9FA-119" value="" style="endArrow=classic;html=1;rounded=0;exitX=0.5;exitY=1;exitDx=0;exitDy=0;entryX=0.5;entryY=0;entryDx=0;entryDy=0;" edge="1" source="bxHcni_rUdnKQo_Xm9FA-115" target="bxHcni_rUdnKQo_Xm9FA-117" parent="1">
          <mxGeometry width="50" height="50" relative="1" as="geometry">
            <mxPoint x="196.25" y="340" as="sourcePoint" />
            <mxPoint x="246.25" y="290" as="targetPoint" />
          </mxGeometry>
        </mxCell>
        <mxCell id="bxHcni_rUdnKQo_Xm9FA-120" value="" style="endArrow=classic;html=1;rounded=0;exitX=1;exitY=0.5;exitDx=0;exitDy=0;entryX=0;entryY=0.5;entryDx=0;entryDy=0;" edge="1" source="bxHcni_rUdnKQo_Xm9FA-121" target="bxHcni_rUdnKQo_Xm9FA-122" parent="1">
          <mxGeometry width="50" height="50" relative="1" as="geometry">
            <mxPoint x="449.99645340751044" y="465.66063977746876" as="sourcePoint" />
            <mxPoint x="416.25" y="405" as="targetPoint" />
          </mxGeometry>
        </mxCell>
        <mxCell id="bxHcni_rUdnKQo_Xm9FA-121" value="a &amp;lt; x4 + x4" style="rhombus;whiteSpace=wrap;html=1;" vertex="1" parent="1">
          <mxGeometry x="340" y="380" width="100" height="50" as="geometry" />
        </mxCell>
        <mxCell id="bxHcni_rUdnKQo_Xm9FA-122" value="a = x4 + x4" style="rounded=0;whiteSpace=wrap;html=1;" vertex="1" parent="1">
          <mxGeometry x="476.25" y="390" width="90" height="30" as="geometry" />
        </mxCell>
        <mxCell id="bxHcni_rUdnKQo_Xm9FA-123" value="" style="endArrow=classic;html=1;rounded=0;exitX=1;exitY=0.5;exitDx=0;exitDy=0;entryX=0;entryY=0.5;entryDx=0;entryDy=0;" edge="1" source="bxHcni_rUdnKQo_Xm9FA-124" target="bxHcni_rUdnKQo_Xm9FA-125" parent="1">
          <mxGeometry width="50" height="50" relative="1" as="geometry">
            <mxPoint x="449.99645340751044" y="545.6606397774688" as="sourcePoint" />
            <mxPoint x="416.25" y="485" as="targetPoint" />
          </mxGeometry>
        </mxCell>
        <mxCell id="bxHcni_rUdnKQo_Xm9FA-124" value="b &amp;gt; x3 + x4" style="rhombus;whiteSpace=wrap;html=1;" vertex="1" parent="1">
          <mxGeometry x="340" y="460" width="100" height="50" as="geometry" />
        </mxCell>
        <mxCell id="bxHcni_rUdnKQo_Xm9FA-125" value="b = x3 + x4" style="rounded=0;whiteSpace=wrap;html=1;" vertex="1" parent="1">
          <mxGeometry x="476.25" y="470" width="90" height="30" as="geometry" />
        </mxCell>
        <mxCell id="bxHcni_rUdnKQo_Xm9FA-126" value="" style="endArrow=classic;html=1;rounded=0;exitX=1;exitY=0.5;exitDx=0;exitDy=0;entryX=0;entryY=0.5;entryDx=0;entryDy=0;" edge="1" source="bxHcni_rUdnKQo_Xm9FA-127" target="bxHcni_rUdnKQo_Xm9FA-128" parent="1">
          <mxGeometry width="50" height="50" relative="1" as="geometry">
            <mxPoint x="449.99645340751044" y="625.6606397774688" as="sourcePoint" />
            <mxPoint x="416.25" y="565" as="targetPoint" />
          </mxGeometry>
        </mxCell>
        <mxCell id="bxHcni_rUdnKQo_Xm9FA-127" value="mx &amp;lt; x1" style="rhombus;whiteSpace=wrap;html=1;" vertex="1" parent="1">
          <mxGeometry x="340" y="540" width="100" height="50" as="geometry" />
        </mxCell>
        <mxCell id="bxHcni_rUdnKQo_Xm9FA-128" value="mx = x1" style="rounded=0;whiteSpace=wrap;html=1;" vertex="1" parent="1">
          <mxGeometry x="476.25" y="550" width="90" height="30" as="geometry" />
        </mxCell>
        <mxCell id="bxHcni_rUdnKQo_Xm9FA-129" value="" style="endArrow=classic;html=1;rounded=0;exitX=1;exitY=0.5;exitDx=0;exitDy=0;entryX=0;entryY=0.5;entryDx=0;entryDy=0;" edge="1" source="bxHcni_rUdnKQo_Xm9FA-130" target="bxHcni_rUdnKQo_Xm9FA-131" parent="1">
          <mxGeometry width="50" height="50" relative="1" as="geometry">
            <mxPoint x="449.99645340751044" y="705.6606397774688" as="sourcePoint" />
            <mxPoint x="416.25" y="645" as="targetPoint" />
          </mxGeometry>
        </mxCell>
        <mxCell id="bxHcni_rUdnKQo_Xm9FA-130" value="b &amp;gt; mx" style="rhombus;whiteSpace=wrap;html=1;" vertex="1" parent="1">
          <mxGeometry x="340" y="620" width="100" height="50" as="geometry" />
        </mxCell>
        <mxCell id="bxHcni_rUdnKQo_Xm9FA-131" value="b = mx" style="rounded=0;whiteSpace=wrap;html=1;" vertex="1" parent="1">
          <mxGeometry x="476.25" y="630" width="90" height="30" as="geometry" />
        </mxCell>
        <mxCell id="bxHcni_rUdnKQo_Xm9FA-132" value="y = (2 * a * a * a - 3 * b) / (sqrt(a * b) + 5*a)" style="rounded=0;whiteSpace=wrap;html=1;" vertex="1" parent="1">
          <mxGeometry x="260" y="710" width="260" height="40" as="geometry" />
        </mxCell>
        <mxCell id="bxHcni_rUdnKQo_Xm9FA-133" value="" style="endArrow=classic;html=1;rounded=0;exitX=0.5;exitY=1;exitDx=0;exitDy=0;entryX=0.5;entryY=0;entryDx=0;entryDy=0;" edge="1" source="bxHcni_rUdnKQo_Xm9FA-132" target="bxHcni_rUdnKQo_Xm9FA-112" parent="1">
          <mxGeometry width="50" height="50" relative="1" as="geometry">
            <mxPoint x="46.25" y="830" as="sourcePoint" />
            <mxPoint x="96.25" y="780" as="targetPoint" />
          </mxGeometry>
        </mxCell>
        <mxCell id="bxHcni_rUdnKQo_Xm9FA-134" value="" style="endArrow=classic;html=1;rounded=0;exitX=0.5;exitY=1;exitDx=0;exitDy=0;" edge="1" source="bxHcni_rUdnKQo_Xm9FA-117" target="bxHcni_rUdnKQo_Xm9FA-121" parent="1">
          <mxGeometry width="50" height="50" relative="1" as="geometry">
            <mxPoint x="6.25" y="530" as="sourcePoint" />
            <mxPoint x="56.25" y="480" as="targetPoint" />
          </mxGeometry>
        </mxCell>
        <mxCell id="bxHcni_rUdnKQo_Xm9FA-135" value="" style="endArrow=classic;html=1;rounded=0;exitX=0.5;exitY=1;exitDx=0;exitDy=0;entryX=0.5;entryY=0;entryDx=0;entryDy=0;" edge="1" source="bxHcni_rUdnKQo_Xm9FA-121" target="bxHcni_rUdnKQo_Xm9FA-124" parent="1">
          <mxGeometry width="50" height="50" relative="1" as="geometry">
            <mxPoint x="206.25" y="480" as="sourcePoint" />
            <mxPoint x="256.25" y="430" as="targetPoint" />
          </mxGeometry>
        </mxCell>
        <mxCell id="bxHcni_rUdnKQo_Xm9FA-136" value="" style="endArrow=classic;html=1;rounded=0;exitX=0.5;exitY=1;exitDx=0;exitDy=0;entryX=0.5;entryY=0;entryDx=0;entryDy=0;" edge="1" source="bxHcni_rUdnKQo_Xm9FA-124" target="bxHcni_rUdnKQo_Xm9FA-127" parent="1">
          <mxGeometry width="50" height="50" relative="1" as="geometry">
            <mxPoint x="116.25" y="660" as="sourcePoint" />
            <mxPoint x="166.25" y="610" as="targetPoint" />
          </mxGeometry>
        </mxCell>
        <mxCell id="bxHcni_rUdnKQo_Xm9FA-137" value="" style="endArrow=classic;html=1;rounded=0;exitX=0.5;exitY=1;exitDx=0;exitDy=0;entryX=0.5;entryY=0;entryDx=0;entryDy=0;" edge="1" source="bxHcni_rUdnKQo_Xm9FA-127" target="bxHcni_rUdnKQo_Xm9FA-130" parent="1">
          <mxGeometry width="50" height="50" relative="1" as="geometry">
            <mxPoint x="236.25" y="630" as="sourcePoint" />
            <mxPoint x="286.25" y="580" as="targetPoint" />
          </mxGeometry>
        </mxCell>
        <mxCell id="bxHcni_rUdnKQo_Xm9FA-138" value="" style="endArrow=classic;html=1;rounded=0;exitX=0.5;exitY=1;exitDx=0;exitDy=0;" edge="1" source="bxHcni_rUdnKQo_Xm9FA-118" parent="1">
          <mxGeometry width="50" height="50" relative="1" as="geometry">
            <mxPoint x="656.25" y="340" as="sourcePoint" />
            <mxPoint x="390" y="360" as="targetPoint" />
            <Array as="points">
              <mxPoint x="521.25" y="360" />
            </Array>
          </mxGeometry>
        </mxCell>
        <mxCell id="bxHcni_rUdnKQo_Xm9FA-139" value="" style="endArrow=classic;html=1;rounded=0;exitX=0.5;exitY=1;exitDx=0;exitDy=0;" edge="1" parent="1">
          <mxGeometry width="50" height="50" relative="1" as="geometry">
            <mxPoint x="519.75" y="420" as="sourcePoint" />
            <mxPoint x="390" y="440" as="targetPoint" />
            <Array as="points">
              <mxPoint x="520" y="440" />
            </Array>
          </mxGeometry>
        </mxCell>
        <mxCell id="bxHcni_rUdnKQo_Xm9FA-140" value="" style="endArrow=classic;html=1;rounded=0;exitX=0.5;exitY=1;exitDx=0;exitDy=0;" edge="1" parent="1">
          <mxGeometry width="50" height="50" relative="1" as="geometry">
            <mxPoint x="519.75" y="500" as="sourcePoint" />
            <mxPoint x="390" y="520" as="targetPoint" />
            <Array as="points">
              <mxPoint x="520" y="520" />
            </Array>
          </mxGeometry>
        </mxCell>
        <mxCell id="bxHcni_rUdnKQo_Xm9FA-141" value="" style="endArrow=classic;html=1;rounded=0;exitX=0.5;exitY=1;exitDx=0;exitDy=0;" edge="1" parent="1">
          <mxGeometry width="50" height="50" relative="1" as="geometry">
            <mxPoint x="519.75" y="580" as="sourcePoint" />
            <mxPoint x="390" y="600" as="targetPoint" />
            <Array as="points">
              <mxPoint x="520" y="600" />
            </Array>
          </mxGeometry>
        </mxCell>
        <mxCell id="bxHcni_rUdnKQo_Xm9FA-142" value="" style="endArrow=classic;html=1;rounded=0;exitX=0.5;exitY=1;exitDx=0;exitDy=0;" edge="1" parent="1">
          <mxGeometry width="50" height="50" relative="1" as="geometry">
            <mxPoint x="519.75" y="660" as="sourcePoint" />
            <mxPoint x="390" y="680" as="targetPoint" />
            <Array as="points">
              <mxPoint x="520" y="680" />
            </Array>
          </mxGeometry>
        </mxCell>
        <mxCell id="bxHcni_rUdnKQo_Xm9FA-143" value="Да" style="text;html=1;align=center;verticalAlign=middle;resizable=0;points=[];autosize=1;strokeColor=none;fillColor=none;" vertex="1" parent="1">
          <mxGeometry x="430" y="300" width="40" height="30" as="geometry" />
        </mxCell>
        <mxCell id="bxHcni_rUdnKQo_Xm9FA-144" value="Да" style="text;html=1;align=center;verticalAlign=middle;resizable=0;points=[];autosize=1;strokeColor=none;fillColor=none;" vertex="1" parent="1">
          <mxGeometry x="430" y="380" width="40" height="30" as="geometry" />
        </mxCell>
        <mxCell id="bxHcni_rUdnKQo_Xm9FA-145" value="Да" style="text;html=1;align=center;verticalAlign=middle;resizable=0;points=[];autosize=1;strokeColor=none;fillColor=none;" vertex="1" parent="1">
          <mxGeometry x="430" y="460" width="40" height="30" as="geometry" />
        </mxCell>
        <mxCell id="bxHcni_rUdnKQo_Xm9FA-146" value="Да" style="text;html=1;align=center;verticalAlign=middle;resizable=0;points=[];autosize=1;strokeColor=none;fillColor=none;" vertex="1" parent="1">
          <mxGeometry x="430" y="540" width="40" height="30" as="geometry" />
        </mxCell>
        <mxCell id="bxHcni_rUdnKQo_Xm9FA-147" value="Да" style="text;html=1;align=center;verticalAlign=middle;resizable=0;points=[];autosize=1;strokeColor=none;fillColor=none;" vertex="1" parent="1">
          <mxGeometry x="430" y="620" width="40" height="30" as="geometry" />
        </mxCell>
        <mxCell id="bxHcni_rUdnKQo_Xm9FA-148" value="Нет" style="text;html=1;align=center;verticalAlign=middle;resizable=0;points=[];autosize=1;strokeColor=none;fillColor=none;" vertex="1" parent="1">
          <mxGeometry x="350" y="340" width="40" height="30" as="geometry" />
        </mxCell>
        <mxCell id="bxHcni_rUdnKQo_Xm9FA-149" value="Нет" style="text;html=1;align=center;verticalAlign=middle;resizable=0;points=[];autosize=1;strokeColor=none;fillColor=none;" vertex="1" parent="1">
          <mxGeometry x="350" y="420" width="40" height="30" as="geometry" />
        </mxCell>
        <mxCell id="bxHcni_rUdnKQo_Xm9FA-150" value="Нет" style="text;html=1;align=center;verticalAlign=middle;resizable=0;points=[];autosize=1;strokeColor=none;fillColor=none;" vertex="1" parent="1">
          <mxGeometry x="350" y="500" width="40" height="30" as="geometry" />
        </mxCell>
        <mxCell id="bxHcni_rUdnKQo_Xm9FA-151" value="Нет" style="text;html=1;align=center;verticalAlign=middle;resizable=0;points=[];autosize=1;strokeColor=none;fillColor=none;" vertex="1" parent="1">
          <mxGeometry x="350" y="580" width="40" height="30" as="geometry" />
        </mxCell>
        <mxCell id="bxHcni_rUdnKQo_Xm9FA-152" value="Нет" style="text;html=1;align=center;verticalAlign=middle;resizable=0;points=[];autosize=1;strokeColor=none;fillColor=none;" vertex="1" parent="1">
          <mxGeometry x="350" y="660" width="40" height="30" as="geometry" />
        </mxCell>
      </root>
    </mxGraphModel>
  </diagram>
</mxfile>
